Coordinates
version=1
nRows=49
nColumns=12
inDegrees=yes

Units are S.I. units (second, meters, Newtons, ...)
Angles are in degrees

endheader
time	SC_y	SC_z	SC_x	AC_y	AC_z	AC_x	GH_y	GH_z	GH_yy	EL_x	PS_y
       0.0              -45.76          38.02          81.12          32.63          7.901         -10.78          35.52          32.23         -100.1          90.18          10.14
   0.02888              -45.76          38.02          81.11          32.64          7.899         -10.78          35.49          32.23         -100.1          90.17          10.16
   0.05777              -45.76          38.02           81.1          32.65          7.896         -10.77          35.46          32.23         -100.1          90.17          10.17
   0.08665              -45.76          38.01          81.09          32.65          7.894         -10.77          35.43          32.23         -100.1          90.16          10.19
    0.1155              -45.75          38.01          81.08          32.66          7.891         -10.77           35.4          32.22         -100.1          90.15          10.21
    0.1444              -45.75          38.01          81.06          32.66          7.888         -10.76          35.36          32.22         -100.1          90.13          10.23
    0.1733              -45.75           38.0          81.05          32.67          7.885         -10.76          35.32          32.22         -100.1          90.12          10.25
    0.2022              -45.75           38.0          81.03          32.68          7.882         -10.76          35.28          32.21         -100.1          90.11          10.27
    0.2311              -45.74          37.99          81.01          32.69          7.878         -10.75          35.23          32.21         -100.1           90.1          10.29
    0.2599              -45.74          37.99          80.99           32.7          7.875         -10.75          35.19           32.2         -100.1          90.08          10.32
    0.2888              -45.73          37.98          80.97          32.71          7.871         -10.74          35.13           32.2         -100.1          90.07          10.35
    0.3177              -45.73          37.98          80.95          32.72          7.866         -10.73          35.08          32.19         -100.1          90.05          10.37
    0.3466              -45.73          37.97          80.93          32.73          7.862         -10.73          35.02          32.19         -100.1          90.03          10.41
    0.3755              -45.72          37.97           80.9          32.74          7.857         -10.72          34.95          32.18         -100.1          90.01          10.44
    0.4044              -45.72          37.96          80.87          32.75          7.851         -10.71          34.88          32.17         -100.1          89.99          10.48
    0.4332              -45.71          37.95          80.84          32.77          7.845         -10.71          34.81          32.16         -100.1          89.97          10.52
    0.4621              -45.71          37.95          80.81          32.79          7.839          -10.7          34.72          32.16         -100.1          89.94          10.56
     0.491               -45.7          37.94          80.77           32.8          7.832         -10.69          34.63          32.15         -100.1          89.91          10.61
    0.5199              -45.69          37.93          80.73          32.82          7.824         -10.68          34.53          32.14         -100.1          89.88          10.66
    0.5488              -45.68          37.92          80.69          32.84          7.816         -10.67          34.42          32.13         -100.1          89.85          10.72
    0.5777              -45.68          37.91          80.64          32.86          7.807         -10.65          34.31          32.12         -100.1          89.82          10.78
    0.6065              -45.67          37.89          80.59          32.89          7.797         -10.64          34.18           32.1         -100.1          89.78          10.85
    0.6354              -45.66          37.88          80.54          32.92          7.785         -10.63          34.03          32.09         -100.1          89.73          10.93
    0.6643              -45.64          37.87          80.47          32.95          7.773         -10.61          33.87          32.07         -100.1          89.68          11.01
    0.6932              -45.63          37.85           80.4          32.98          7.759         -10.59          33.69          32.06         -100.1          89.63           11.1
    0.7221              -45.62          37.83          80.32          33.02          7.744         -10.57          33.49          32.04         -100.1          89.57          11.21
     0.751               -45.6          37.81          80.24          33.06          7.727         -10.55          33.27          32.02         -100.1           89.5          11.32
    0.7798              -45.58          37.79          80.14          33.11          7.707         -10.52          33.02          31.99         -100.1          89.43          11.46
    0.8087              -45.56          37.76          80.03          33.16          7.685         -10.49          32.74          31.96         -100.1          89.34          11.61
    0.8376              -45.54          37.73           79.9          33.22          7.661         -10.46          32.42          31.93         -100.1          89.25          11.77
    0.8665              -45.51          37.69          79.76          33.29          7.632         -10.42          32.05           31.9         -100.1          89.14          11.97
    0.8954              -45.48          37.65          79.59          33.37            7.6         -10.38          31.63          31.86         -100.1          89.01          12.19
    0.9242              -45.45          37.61           79.4          33.46          7.562         -10.33          31.15          31.81         -100.0          88.86          12.44
    0.9531              -45.41          37.55          79.18          33.56          7.518         -10.27          30.58          31.75         -100.0          88.69          12.74
     0.982              -45.36          37.49          78.92          33.69          7.467          -10.2          29.92          31.69         -100.0          88.49          13.09
     1.011               -45.3          37.42          78.61          33.84          7.407         -10.12          29.15          31.62         -100.0          88.26           13.5
      1.04              -45.24          37.33          78.24          34.01          7.336         -10.02          28.22          31.53         -100.0          87.98          13.98
     1.069              -45.16          37.23          77.81          34.22           7.25         -9.909          27.12          31.42         -100.0          87.65          14.57
     1.098              -45.06           37.1          77.28          34.47          7.146          -9.77          25.78          31.29         -100.0          87.24          15.27
     1.126              -44.94          36.94          76.63          34.78          7.019         -9.601          24.14          31.13         -100.0          86.75          16.13
     1.155               -44.8          36.75          75.84          35.16          6.863         -9.391          22.12          30.93         -100.0          86.14           17.2
     1.184              -44.62          36.51          74.84          35.63          6.668          -9.13           19.6          30.69         -99.98          85.38          18.52
     1.213              -44.39          36.21          73.59          36.23          6.422         -8.801          16.43          30.38         -99.97          84.42          20.19
     1.242               -44.1          35.83           72.0          36.99           6.11         -8.383          12.39          29.99         -99.94          83.21          22.32
     1.271              -43.73          35.34          69.96          37.96           5.71         -7.848          7.228          29.49         -99.92          81.65          25.04
       1.3              -43.25          34.72          67.35          39.21          5.197         -7.161         0.6019          28.84         -99.88          79.65          28.52
     1.329              -42.64          33.92          64.01          40.81          4.542         -6.284         -7.862          28.02         -99.83           77.1          32.98
     1.357              -41.88          32.91          59.81          42.81          3.717          -5.18          -18.5          26.99         -99.77          73.89          38.58
     1.386              -40.95          31.68          54.69          45.26          2.713         -3.836         -31.47          25.73          -99.7          69.98          45.41
